# xmcd
#
# Track frame offsets:
#      150
#      15497
#      38727
#      53295
#      70682
#      89112
#      99757
#      118482
#      134077
#      152940
#      170655
#      190152
#      203805
# 
# Disc length: 2914 seconds
#
# Revision: 4
# Processed by: cddbd v1.4PL0 Copyright (c) Steve Scherf et al.
#
# Submitted via: FreeRIP 1.21
#
DISCID=b10b600d
DTITLE=Chicago Bob Nelson - Back to Bogalusa
DYEAR=1995
DGENRE=Blues
TTITLE0=Leave the Young Girls Alone
TTITLE1=Came Home This Morning
TTITLE2=When I Had (I Didn't Need)
TTITLE3=Going Home
TTITLE4=Sugar Mama
TTITLE5=Swamp Jump
TTITLE6=Wilma Jean
TTITLE7=Everybody Needs Somebody
TTITLE8=Been Down So Long
TTITLE9=Short Hair Woman
TTITLE10=Back to Bogalusa
TTITLE11=It's a Shame
TTITLE12=[Unknown]
EXTD=
EXTT0=
EXTT1=
EXTT2=
EXTT3=
EXTT4=
EXTT5=
EXTT6=
EXTT7=
EXTT8=
EXTT9=
EXTT10=
EXTT11=
EXTT12=
PLAYORDER=
